<svg id="Layer_1" height="512" viewBox="0 0 64 64" width="512" xmlns="http://www.w3.org/2000/svg" data-name="Layer 1"><path d="m5 12v37h54v-37z" fill="#ccedff"/><path d="m7.523 49h5l34.477-37h-5z" fill="#fff" opacity=".4"/><path d="m16.523 49h5l34.477-37h-5z" fill="#fff" opacity=".4"/><path d="m5 53h54a2 2 0 0 0 2-2v-2h-58v2a2 2 0 0 0 2 2z" fill="#2199ea"/><path d="m59 51h-54a2 2 0 0 1 -2-2v2a2 2 0 0 0 2 2h54a2 2 0 0 0 2-2v-2a2 2 0 0 1 -2 2z" fill="#148cde"/><path d="m43 42h8v3h-8z" fill="#e6e6e6"/><path d="m47 49a4 4 0 0 0 4-4h-8a4 4 0 0 0 4 4z" fill="#d6d6d6"/><path d="m46.087 20.051a7.993 7.993 0 0 0 -5.938 12.075 18.287 18.287 0 0 1 2.851 9.44v.434h2v-8l-2-4 1-1 3 1 3-1 1 1-2 4v8h2v-.438a17.366 17.366 0 0 1 2.763-9.294 8 8 0 0 0 -7.676-12.217z" fill="#ffb26c"/><path d="m49 34 2-4-1-1-3 1-3-1-1 1 2 4v8h4z" fill="#ff8e31"/><path d="m33.81 32h3.19v-4h-3.19a10.927 10.927 0 0 0 -1.75-4.232l2.254-2.253-2.829-2.829-2.253 2.254a10.927 10.927 0 0 0 -4.232-1.75v-3.19h-4v3.19a10.927 10.927 0 0 0 -4.232 1.75l-2.253-2.254-2.829 2.829 2.254 2.253a10.927 10.927 0 0 0 -1.75 4.232h-3.19v4h3.19a10.927 10.927 0 0 0 1.75 4.232l-2.254 2.253 2.829 2.829 2.253-2.254a10.927 10.927 0 0 0 4.232 1.75v3.19h4v-3.19a10.927 10.927 0 0 0 4.232-1.75l2.253 2.254 2.829-2.829-2.254-2.253a10.927 10.927 0 0 0 1.75-4.232zm-10.81 5a7 7 0 1 1 7-7 7 7 0 0 1 -7 7z" fill="#ff5252"/><circle cx="23" cy="30" fill="#ff5252" r="3"/><path d="m46.087 20.051c-.218.024-.425.084-.637.126a4.292 4.292 0 0 0 .672 4.763c1.647 2.032 4.505 2.669 6.384 1.422a3.39 3.39 0 0 0 1.462-2.283 7.994 7.994 0 0 0 -7.881-4.028z" fill="#ffb775"/><ellipse cx="49.853" cy="23.679" fill="#ffcb9c" rx="1.5" ry="2" transform="matrix(.569 -.822 .822 .569 2.011 51.196)"/><path d="m32.988 25.431a14.8 14.8 0 0 1 -14.557 14.557 10.949 10.949 0 0 0 2.569.822v3.19h4v-3.19a10.927 10.927 0 0 0 4.232-1.75l2.253 2.254 2.829-2.829-2.254-2.253a10.927 10.927 0 0 0 1.75-4.232h3.19v-4h-3.19a10.949 10.949 0 0 0 -.822-2.569z" fill="#de3a3a"/><path d="m24.554 27.446a2.965 2.965 0 0 1 .446 1.554 3 3 0 0 1 -3 3 2.965 2.965 0 0 1 -1.554-.446 2.992 2.992 0 1 0 4.108-4.108z" fill="#de3a3a"/><path d="m61 48h-1v-36a1 1 0 0 0 -1-1h-54a1 1 0 0 0 -1 1v36h-1a1 1 0 0 0 -1 1v2a3 3 0 0 0 3 3h54a3 3 0 0 0 3-3v-2a1 1 0 0 0 -1-1zm-55-35h52v35h-7.026a4.948 4.948 0 0 0 1.026-3v-3.438a16.355 16.355 0 0 1 2.607-8.762 8.993 8.993 0 0 0 -1.607-11.507 9 9 0 0 0 -14.891 5.27 9.427 9.427 0 0 0 -.109 1.582v-.145a1 1 0 0 0 -1-1h-2.387a11.831 11.831 0 0 0 -1.277-3.093l1.685-1.685a1 1 0 0 0 0-1.414l-2.829-2.829a1 1 0 0 0 -1.414 0l-1.685 1.686a11.834 11.834 0 0 0 -3.093-1.278v-2.387a1 1 0 0 0 -1-1h-4a1 1 0 0 0 -1 1v2.387a11.834 11.834 0 0 0 -3.093 1.278l-1.685-1.686a1 1 0 0 0 -1.414 0l-2.829 2.829a1 1 0 0 0 0 1.414l1.685 1.685a11.831 11.831 0 0 0 -1.277 3.093h-2.387a1 1 0 0 0 -1 1v4a1 1 0 0 0 1 1h2.387a11.831 11.831 0 0 0 1.277 3.093l-1.685 1.685a1 1 0 0 0 0 1.414l2.829 2.829a1 1 0 0 0 1.414 0l1.685-1.686a11.834 11.834 0 0 0 3.093 1.278v2.387a1 1 0 0 0 1 1h4a1 1 0 0 0 1-1v-2.387a11.834 11.834 0 0 0 3.093-1.278l1.685 1.686a1 1 0 0 0 1.414 0l2.829-2.829a1 1 0 0 0 0-1.414l-1.685-1.685a11.831 11.831 0 0 0 1.277-3.093h2.387a1 1 0 0 0 1-1v-3.828a8.87 8.87 0 0 0 1.294 4.473 17.179 17.179 0 0 1 2.706 8.921v3.434a4.948 4.948 0 0 0 1.026 3h-37.026zm38.184 33h5.632a2.982 2.982 0 0 1 -5.632 0zm5.816-2h-6v-1h6zm-4.1-10.447-1.683-3.353.054-.053 2.413.805a1 1 0 0 0 .632 0l2.413-.805.054.053-1.678 3.356a1 1 0 0 0 -.105.444v7h-2v-7a1 1 0 0 0 -.1-.447zm4.1 7.447v-6.764l1.9-3.789a1 1 0 0 0 -.188-1.154l-1-1a1 1 0 0 0 -1.023-.242l-2.684.9-2.684-.9a1 1 0 0 0 -1.023.242l-1 1a1 1 0 0 0 -.188 1.154l1.89 3.789v6.764h-.01a19.365 19.365 0 0 0 -2.985-9.392 6.959 6.959 0 0 1 -.917-4.737 7.049 7.049 0 0 1 6.112-5.826 7 7 0 0 1 6.721 10.688 18.406 18.406 0 0 0 -2.912 9.267zm-18.646-4.061 1.546 1.546-1.415 1.415-1.547-1.545a1 1 0 0 0 -1.274-.117 9.881 9.881 0 0 1 -3.845 1.589 1 1 0 0 0 -.819.983v2.19h-2v-2.19a1 1 0 0 0 -.819-.984 9.881 9.881 0 0 1 -3.845-1.589 1 1 0 0 0 -1.274.117l-1.547 1.546-1.415-1.415 1.545-1.546a1 1 0 0 0 .117-1.274 9.892 9.892 0 0 1 -1.589-3.846 1 1 0 0 0 -.983-.819h-2.19v-2h2.19a1 1 0 0 0 .984-.819 9.892 9.892 0 0 1 1.589-3.846 1 1 0 0 0 -.117-1.274l-1.546-1.546 1.415-1.415 1.547 1.545a1 1 0 0 0 1.274.117 9.881 9.881 0 0 1 3.845-1.589 1 1 0 0 0 .819-.983v-2.19h2v2.19a1 1 0 0 0 .819.984 9.881 9.881 0 0 1 3.845 1.589 1 1 0 0 0 1.274-.117l1.547-1.546 1.415 1.415-1.545 1.546a1 1 0 0 0 -.117 1.274 9.892 9.892 0 0 1 1.589 3.846 1 1 0 0 0 .983.819h2.19v2h-2.19a1 1 0 0 0 -.984.819 9.892 9.892 0 0 1 -1.589 3.846 1 1 0 0 0 .117 1.274zm28.646 14.061a1 1 0 0 1 -1 1h-54a1 1 0 0 1 -1-1v-1h56z"/><path d="m23 22a8 8 0 1 0 8 8 8.009 8.009 0 0 0 -8-8zm0 14a6 6 0 1 1 6-6 6.006 6.006 0 0 1 -6 6z"/><path d="m23 26a4 4 0 1 0 4 4 4 4 0 0 0 -4-4zm0 6a2 2 0 1 1 2-2 2 2 0 0 1 -2 2z"/><path d="m29.611 45.667.778 1.842a19.131 19.131 0 0 0 2.111-1.051l-1-1.732a16.852 16.852 0 0 1 -1.889.941z"/><path d="m33.686 43.223 1.257 1.555a19.191 19.191 0 0 0 5.081-6.333l-1.791-.89a17.187 17.187 0 0 1 -4.547 5.668z"/><path d="m46 14h2v4h-2z"/><path d="m51.197 16.5h3.606v2h-3.606z" transform="matrix(.555 -.832 .832 .555 9.04 51.891)"/><path d="m40 15.697h2v3.606h-2z" transform="matrix(.832 -.555 .555 .832 -2.821 25.682)"/></svg>